<svg width="334" height="369" viewBox="0 0 334 369" fill="none" xmlns="http://www.w3.org/2000/svg">
<path d="M89.1028 80.0257C77.4017 90.535 67.83 103.022 60.9342 116.775C54.0385 130.527 49.9537 145.276 48.9132 160.178C47.8726 175.08 49.8967 189.844 54.8697 203.627C59.8428 217.41 67.6676 229.942 77.8971 240.507C88.1267 251.072 100.561 259.465 114.49 265.204C128.418 270.944 143.569 273.918 159.076 273.958C174.584 273.998 190.144 271.102 204.869 265.436C219.595 259.77 233.196 251.445 244.897 240.935L167 160.481L89.1028 80.0257Z" fill="#B094B8"/>
<path d="M91.3816 105.969C83.1805 113.335 76.6943 122.317 72.2931 132.402C67.892 142.486 65.6621 153.477 65.7309 164.746C65.7997 176.015 68.1657 187.341 72.694 198.078C77.2222 208.815 83.824 218.753 92.1223 227.323C100.421 235.894 110.253 242.93 121.058 248.03C131.863 253.13 143.429 256.193 155.096 257.045C166.763 257.897 178.302 256.521 189.054 252.996C199.807 249.471 209.562 243.866 217.763 236.5L154.572 171.235L91.3816 105.969Z" fill="#D5E0DF"/>
<path d="M123.353 258.149L151.05 340.654H95.6568L123.353 258.149Z" fill="#B094B8"/>
<path d="M238.44 99.5763L201.294 201.544L130.235 128.152L238.44 99.5763Z" fill="#B094B8"/>
<path d="M223.781 112.841L200.376 190.695L141.511 129.898L223.781 112.841Z" fill="#D5E0DF"/>
<ellipse cx="229.961" cy="105.608" rx="15.2291" ry="14.6676" fill="#D5E0DF"/>
<ellipse cx="229.959" cy="105.608" rx="9.13749" ry="8.80061" fill="#B094B8"/>
</svg>
